PathFileType	4	(X/Y/Z)	C:/Users/beibeiliu/ov580/test_trc/User3\out7_training_dense_right.trc
DataRate	CameraRate	NumFrames	NumMarkers	Units	OrigDataRate	OrigDataStartFrame	OrigNumFrames
120	120	8	19	mm	120	188	500
Frame#	Time	ThumbCMC			ThumbMCP			ThumbIP			ThumbTip			IndexMCP			IndexPIP			IndexTip			MiddleMCP			MiddlePIP			MiddleTip			RingMCP			RingPIP			RingTip			PinkyMCP			PinkyPIP			PinkyTip			BackHand1			BackHand2			BackHand3	
		X0	Y0	Z0	X1	Y1	Z1	X2	Y2	Z2	X3	Y3	Z3	X4	Y4	Z4	X5	Y5	Z5	X6	Y6	Z6	X7	Y7	Z7	X8	Y8	Z8	X9	Y9	Z9	X10	Y10	Z10	X11	Y11	Z11	X12	Y12	Z12	X13	Y13	Z13	X14	Y14	Z14	X15	Y15	Z15	X16	Y16	Z16	X17	Y17	Z17	X18	Y18	Z18	
187	1.55833	136.704	59.8488	36.4876	120.747	46.1952	7.67269	114.122	30.5013	-17.0427	129.799	12.4892	-33.6506	157.414	59.9874	-39.8971	139.173	30.9483	-53.0033	137.82	18.8738	-23.1978	172.407	44.5972	-41.4497	154.759	14.3523	-41.248	155.032	17.6324	-2.21421	184.898	29.6341	-32.9714	170.188	6.23555	-26.0952	164.972	17.5623	8.22287	199.031	17.4143	-19.6693	180.826	1.17849	-6.18863	179.45	18.8179	19.8267	202.462	64.9057	15.4815	200.595	66.2593	44.3337	168.945	78.4769	25.4837	
188	1.56667	130.112	50.3542	41.625	107.163	31.126	20.4675	104.614	9.72267	-4.64288	118.264	-11.0534	-15.5252	140.028	33.769	-36.1146	127.241	2.77246	-37.6463	125.938	-1.88452	-6.6513	155.472	16.435	-34.5213	146.122	-11.703	-24.5835	146.277	4.31076	15.2411	169.924	7.48926	-20.429	159.022	-16.0755	-4.7005	158.255	4.9845	24.5259	184.524	1.94177	-7.04646	166.847	-12.8566	9.84466	169.061	11.0912	31.0824	191.24	50.5335	16.2874	192.157	59.9592	41.4131	163.922	67.5884	28.5045	
189	1.575	116.562	44.3447	46.1349	96.6077	21.7939	29.7939	88.9344	-4.21719	10.9252	108.529	-23.9084	5.26042	121.314	14.0329	-21.5173	104.577	-17.1769	-17.7556	105.329	-15.7937	13.1257	135.831	-4.95056	-19.4928	121.762	-28.3837	2.73884	129.724	-6.40072	33.0182	150.163	-14.3243	-5.10931	139.357	-27.8377	18.5502	147.153	-3.88239	40.604	171.302	-15.6201	7.52444	151.408	-22.1465	28.723	157.694	0.595363	42.9544	179.287	37.4321	15.1454	182.341	52.2919	42.0452	148.328	57.5335	27.8249	
190	1.58333	110.209	45.0667	58.3938	86.406	23.2519	41.1783	77.5805	-2.32835	27.401	97.6191	-26.177	21.911	96.787	-3.02119	-3.58152	81.7766	-30.29	8.34567	85.5559	-29.5349	41.9789	115.037	-17.4548	0.989173	104.444	-38.2821	28.6387	118.991	-10.3007	52.5599	128.479	-27.3403	15.6267	121.398	-35.1505	41.7528	131.368	-4.38779	58.8371	147.951	-24.9258	22.7757	134.857	-29.6832	49.1566	144.22	-3.96682	59.5608	162.11	21.795	17.9327	171.881	44.0896	44.0554	134.706	49.7991	31.2084	
191	1.59167	99.2531	41.0987	63.8037	76.4914	24.7595	57.8379	61.2148	-5.52372	42.8361	75.4598	-28.21	42.0496	77.9363	-16.1053	17.4535	62.6409	-36.6322	34.5449	65.016	-32.4449	65.3172	92.0467	-31.2605	22.2348	84.4896	-43.6868	49.3969	100.186	-12.8386	70.9001	112.31	-33.5288	32.5251	103.019	-38.2763	62.4222	112.768	-8.03887	74.5271	129.466	-36.783	42.441	121.304	-32.7395	70.4281	126.789	-2.16305	72.9326	141.606	15.8835	24.5476	156.036	36.5789	45.9181	122.05	38.6802	36.2242	
192	1.6	86.1976	44.7752	72.3275	57.7557	26.4312	70.5824	47.0384	-1.70797	60.0183	54.8866	-26.7156	59.546	56.3903	-10.6402	30.0159	45.4084	-34.0956	46.7697	51.9132	-24.8182	81.3175	72.6626	-30.2982	32.9282	63.282	-40.3364	62.6706	81.6245	-11.0271	82.0962	88.3131	-35.4898	45.1682	86.887	-40.0273	73.5022	94.8997	-5.7218	83.2754	106.267	-35.448	53.3364	101.593	-30.3252	81.4317	113.705	-3.91845	84.5589	125.104	10.9325	32.7849	139.923	31.7102	47.0593	108.193	42.9764	44.0012	
193	1.60833	81.5245	51.2866	70.57	47.8229	31.5589	69.1624	30.802	11.8499	68.5541	31.6229	-17.9141	63.9533	48.6496	3.77969	20.1332	27.6133	-17.7059	35.5725	38.4712	-3.61524	66.6289	56.663	-18.5918	24.6402	42.906	-30.729	48.3494	61.5693	-5.85161	73.6986	77.2478	-26.4153	35.5885	64.1785	-30.461	65.6974	79.2509	-1.44916	77.8192	95.7232	-33.0909	48.9261	83.6862	-26.001	76.9404	98.3687	0.451053	79.1957	116.917	10.5554	27.0944	138.553	31.4083	46.4746	103.554	46.7992	40.2757	
194	1.61667	83.0765	61.3107	51.2226	48.6449	48.3821	47.2013	26.1479	28.5677	40.3654	23.2017	3.1677	38.8669	55.3879	15.4659	-8.54748	27.7539	3.33711	2.9461	35.6468	10.5505	33.1618	58.5143	-6.22305	-3.25313	38.055	-15.9165	19.0373	53.481	4.55505	48.6203	70.6873	-16.382	13.3678	54.4992	-21.2999	37.5325	70.2141	1.14035	56.9154	80.5514	-23.5579	27.6206	69.6064	-22.104	51.5454	82.0787	3.10522	60.0599	118.052	13.2848	17.172	139.757	28.2155	37.9914	110.873	49.6229	23.63	
